PathFileType	4	(X/Y/Z)	D:\Research_projects\MuscleProsody\BulkSports2Dtrack\RetrackedSports2D\p1_sample60_cam2\p1_sample60_cam2_Sports2D\p1_sample60_cam2_Sports2D_m_person00.trc
DataRate	CameraRate	NumFrames	NumMarkers	Units	OrigDataRate	OrigDataStartFrame	OrigNumFrames
60	60	9	22	m	60	195	780
Frame#	Time	Hip			RHip			RKnee			RAnkle			RBigToe			RSmallToe			RHeel			LHip			LKnee			LAnkle			LBigToe			LSmallToe			LHeel			Neck			Head			Nose			RShoulder			RElbow			RWrist			LShoulder			LElbow			LWrist		
		X1	Y1	Z1	X2	Y2	Z2	X3	Y3	Z3	X4	Y4	Z4	X5	Y5	Z5	X6	Y6	Z6	X7	Y7	Z7	X8	Y8	Z8	X9	Y9	Z9	X10	Y10	Z10	X11	Y11	Z11	X12	Y12	Z12	X13	Y13	Z13	X14	Y14	Z14	X15	Y15	Z15	X16	Y16	Z16	X17	Y17	Z17	X18	Y18	Z18	X19	Y19	Z19	X20	Y20	Z20	X21	Y21	Z21	X22	Y22	Z22
195	3.25	0.8135442167838474	1.0296865606832961	0.0301	0.7118991047778322	0.9939557210043779	0.0301	0.7287580112272559	0.5563306171848378	0.129	0.7402102038238162	0.18576953852637174	0.023	0.7594132684799317	0.02265057661898321	0.2179	0.6919734804384688	0.04140581244778849	0.1804	0.7532475957063426	0.15859603352087498	-0.0119	0.9181825572101516	1.0013247762668658	0.0301	0.9230660534415552	0.5713018752649988	0.129	0.9267265515951347	0.1873590646362315	0.023	0.8924722084551686	0.03989657236271215	0.2179	0.9661023452102163	0.05918447681274989	0.1804	0.9245478576757807	0.1592681805544474	-0.0119	0.7920752551873158	1.6639620571894662	0.0008	0.7546241163838777	1.9529684831878107	0.0655	0.7460685211576364	1.7970788970545921	0.1076	0.6118237639507013	1.6245636951099456	-0.01275	0.39221206198462016	1.7820387678424303	0.0702	0.4573407045247179	2.107407051836346	0.1076	0.9861037875022594	1.6415857156788813	-0.01275	1.211354271650468	1.7806224926537184	0.0702	1.1729181738555423	2.097277894456906	0.1076
196	3.2666666666666666	0.813595540121478	1.0443356954460068	0.0301	0.711202138356863	1.0076874660419366	0.0301	0.7289165385695426	0.567857981798908	0.129	0.7384310825547762	0.19366823425889299	0.023	0.7581552100324852	0.026916387062607294	0.2179	0.6898926955278704	0.04601515714469876	0.1804	0.750985098738359	0.16641529006303604	-0.0119	0.9189711842389375	1.01493266503925	0.0301	0.9235851037206211	0.5830421254110276	0.129	0.927127343017501	0.19525454461005376	0.023	0.8950380776731145	0.04670997468323595	0.2179	0.9682176837350854	0.0661670009639455	0.1804	0.9243478274777323	0.166281431739799	-0.0119	0.7919950208345051	1.6783131197915435	0.0008	0.7546056331776826	1.967738567767325	0.0655	0.7462158151450565	1.8112731141445064	0.1076	0.6114206093477669	1.6393232219199927	-0.01275	0.3939996044986957	1.8018075365962942	0.0702	0.4623919609202385	2.128951883330687	0.1076	0.9860260373409314	1.6566970910249563	-0.01275	1.2106670371568624	1.795469408604899	0.0702	1.169264106679712	2.112926374945398	0.1076
197	3.283333333333333	0.8136139378925776	1.0543877883651862	0.0301	0.7106194456362097	1.017325290415961	0.0301	0.729016122937812	0.5757975505464422	0.129	0.7371176153326482	0.19928283662807877	0.023	0.7569239322176428	0.029888119830122364	0.2179	0.6881435479427067	0.04936656121919588	0.1804	0.7491921487816212	0.17199638761261024	-0.0119	0.9195983751080985	1.0243522792543378	0.0301	0.9237888613204857	0.5911400416314254	0.129	0.9275666097924106	0.20107636136498014	0.023	0.8980145608897462	0.05209512948482372	0.2179	0.970686357869187	0.07185378200606048	0.1804	0.9241695669816784	0.17135904018967185	-0.0119	0.7918848378636969	1.6875479553481343	0.0008	0.754703964689614	1.977395654088978	0.0655	0.7463510286317934	1.8199672413943209	0.1076	0.6111898880149467	1.6486460901945053	-0.01275	0.3947643469877428	1.8132875658968564	0.0702	0.46725023344899225	2.1412680282726924	0.1076	0.9857672627954883	1.6664457609189924	-0.01275	1.210689378990994	1.8024327156422333	0.0702	1.1660467418477016	2.119604344771939	0.1076
198	3.3	0.8135985400251645	1.0595512744130524	0.0301	0.7101464521570567	1.0225531311810567	0.0301	0.7290062222363142	0.5797523247926759	0.129	0.7361956931888207	0.2020676386256127	0.023	0.7557909381374855	0.031189560560653876	0.2179	0.6868075454962642	0.051012373494604094	0.1804	0.7477998447126866	0.1747765654416814	-0.0119	0.9200423125299786	1.029302423204243	0.0301	0.9237363028068312	0.595163611505372	0.129	0.9280715961226249	0.20429505099157025	0.023	0.9011971909144301	0.055505453265110236	0.2179	0.9733521481151507	0.07564288993891846	0.1804	0.9240660402904186	0.17402260223409968	-0.0119	0.7917520745057713	1.691486611173665	0.0008	0.7549076418515577	1.981785396713925	0.0655	0.7465167032470373	1.823181572780158	0.1076	0.6111571689177322	1.6524726650512054	-0.01275	0.3945590212428663	1.8167344715076266	0.0702	0.4716568347265226	2.144777070997828	0.1076	0.9852984078919554	1.670693205342384	-0.01275	1.2113346695038325	1.8017162430332634	0.0702	1.1632720636455962	2.117642441368435	0.1076
199	3.3166666666666664	0.8135329964216564	1.0597053235212215	0.0301	0.7097681108907606	1.0232178411074613	0.0301	0.7288539745023452	0.5795379141124648	0.129	0.7355902916118665	0.20168260885338546	0.023	0.7548817087135665	0.03062417432441939	0.2179	0.6859931269954095	0.050675971738497604	0.1804	0.7467383193043189	0.17441185528880288	-0.0119	0.9202739490507835	1.0296694080019833	0.0301	0.9234937948279991	0.5949134254558245	0.129	0.9286350747635491	0.20452602211707235	0.023	0.9043051018251869	0.05650470161359594	0.2179	0.9759723970849155	0.07703847548554517	0.1804	0.9240577180105763	0.1739224667331322	-0.0119	0.7915998558995176	1.6900398955765243	0.0008	0.7552064475866178	1.9808592499953745	0.0655	0.7467712642935247	1.820980613859093	0.1076	0.611337423378754	1.650849486286303	-0.01275	0.39349739931726263	1.8124538377390216	0.0702	0.4753656092949884	2.1399255818921876	0.1076	0.9846109636837788	1.6694079732624119	-0.01275	1.2124840365847955	1.7935662861888488	0.0702	1.1609334527566277	2.1074305148302233	0.1076
200	3.3333333333333335	0.8133901330410314	1.054946951642223	0.0301	0.7094713579219165	1.0193924325468309	0.0301	0.7285407923290824	0.5752458926676097	0.129	0.7352461913747601	0.19804553184094492	0.023	0.7542988856530228	0.028213667776289853	0.2179	0.6857743440022185	0.04831769890317109	0.1804	0.7459686829516674	0.17083653551431977	-0.0119	0.9202574747004927	1.0255607490282104	0.0301	0.9231247930115278	0.5904817807830409	0.129	0.9292139943582166	0.20159624614942703	0.023	0.907039685502207	0.054866709506419926	0.2179	0.9782665963035456	0.07576068232833334	0.1804	0.9241267911935273	0.1708984046060581	-0.0119	0.7914303476413794	1.6832307612072417	0.0008	0.7555835102261033	1.9746899579968782	0.0655	0.7471679728025928	1.8134642397787966	0.1076	0.6117412844463676	1.643932700911213	-0.01275	0.3917128491786238	1.8007806084816291	0.0702	0.47818260896070225	2.127144484270531	0.1076	0.983694005866194	1.662671860310248	-0.01275	1.2140011329800127	1.778250951823237	0.0702	1.1589987911866513	2.0893678907468516	0.1076
201	3.35	0.8131426692682254	1.0455634956276076	0.0301	0.7092538366400678	1.0113277066205364	0.0301	0.72806494945515	0.5672214250536369	0.129	0.7351391996087138	0.19135019713018386	0.023	0.7541092534225539	0.024225878620365446	0.2179	0.6861802820710734	0.04417328331805562	0.1804	0.7454924822714165	0.16425439194689964	-0.0119	0.9199601243373479	1.0172477246877987	0.0301	0.9226761785222966	0.5822147287520427	0.129	0.9297349631525186	0.1955999674488696	0.023	0.9091671135745383	0.05065908012848793	0.2179	0.9799939325245273	0.07183392924901111	0.1804	0.9242112504205898	0.16502714829063794	-0.0119	0.7912394572305489	1.671243702402381	0.0008	0.7560185738430908	1.9634907559379415	0.0655	0.7477288591107601	1.8008317244270293	0.1076	0.6123622677810017	1.6319918836874918	-0.01275	0.38934601458338536	1.7820745176711814	0.0702	0.47998042035915917	2.1068085712967255	0.1076	0.982540852359419	1.6506962939849115	-0.01275	1.215737162999838	1.7560753404839897	0.0702	1.1574216754097262	2.0638400377222177	0.1076
202	3.3666666666666667	0.8127723430960173	1.0319644613375407	0.0301	0.709120128353175	0.9993636688108183	0.0301	0.7274425833059137	0.5559923812206576	0.129	0.735276297415298	0.18204712598004436	0.023	0.7543660827199211	0.019129240298691893	0.2179	0.6872072611311245	0.03870677017057603	0.1804	0.7453451898899348	0.15510071834307196	-0.0119	0.9193628880969347	1.00507590390864	0.0301	0.9221736470419056	0.5706233324469755	0.129	0.930110707674329	0.18689520467937173	0.023	0.9105889968229572	0.04424479342915698	0.2179	0.9810254439813357	0.06559231214493154	0.1804	0.924209444960893	0.15661805952265676	-0.0119	0.7910140020791122	1.6544493314418707	0.0008	0.7564933925391175	1.947620726347693	0.0655	0.7484375614137045	1.7834231916806198	0.1076	0.6131680786511609	1.6154031263767485	-0.01275	0.3865575488663445	1.7567185828690632	0.0702	0.4806844257418332	2.079208474061332	0.1076	0.9811668734717226	1.6338285175836946	-0.01275	1.217529537348812	1.7273922581880055	0.0702	1.1561534458793408	2.0311986404665063	0.1076
203	3.3833333333333333	0.8122718608834419	1.0146501372918422	0.0301	0.7090709759416702	0.9839187587231503	0.0301	0.7267065384012417	0.542213654104314	0.129	0.7356860165023457	0.17081257252200313	0.023	0.7550966985414281	0.013485501962225274	0.2179	0.688813719075365	0.03250775866848922	0.1804	0.7455837826978781	0.1440302803146011	-0.0119	0.9184656614206127	0.9894571803958226	0.0301	0.9216283399993168	0.556328781663637	0.129	0.9302690355887233	0.17604992944375208	0.023	0.9113535792374556	0.03620362794054024	0.2179	0.9813713518493312	0.05760546603458578	0.1804	0.9240067338770749	0.14618253655915137	-0.0119	0.7907444159640115	1.6333888572568713	0.0008	0.7569912154088869	1.9275865102644534	0.0655	0.7492627968856702	1.7617134683738596	0.1076	0.6141069419187241	1.5946486153649673	-0.01275	0.38353413854760987	1.725125836922992	0.0702	0.48025170567750114	2.0445585575444953	0.1076	0.9796127678287573	1.6125518538979031	-0.01275	1.2191984438711077	1.6926055735624508	0.0702	1.1551405274129862	1.9917386529850651	0.1076
